Coordinates
version=1
nRows=19
nColumns=33
inDegrees=yes

Units are S.I. units (second, meters, Newtons, ...)
Angles are in degrees.

endheader
time	ground_thorax_rot_x	ground_thorax_rot_y	ground_thorax_rot_z	ground_thorax_tx	ground_thorax_ty	ground_thorax_tz	clav_prot_r	clav_elev_r	scapula_abduction_r	scapula_elevation_r	scapula_upward_rot_r	scapula_winging_r	shoulder_elv_r	plane_of_elev_r	axial_rot_r	elbow_flexion_r	pro_sup_r	wrist_flex_r	wrist_dev_r	clav_prot_l	clav_elev_l	scapula_abduction_l	scapula_elevation_l	scapula_upward_rot_l	scapula_winging_l	shoulder_elv_l	plane_of_elev_l	axial_rot_l	elbow_flexion_l	pro_sup_l	wrist_flex_l	wrist_dev_l	
8.2000	-38.795525	-22.159207	23.815237	-115.801988	856.288813	-43.296241	45.000000	-45.000000	39.677216	-45.000000	-33.160709	2508.918387	-825.029372	-90.000000	20.602351	3218.940613	-268.389020	13.882000	11.603952	-0.442700	33.420129	-32.654511	-45.000000	-45.000000	4410.440845	-3882.085900	26.171576	42.950686	-9.999355	38.489942	11.471362	-22.033098	
8.2100	-38.767466	-22.243333	23.925785	-115.539821	855.894724	-43.249741	45.000000	-45.000000	39.689432	-45.000000	-33.145910	2508.871766	-824.992690	-90.000000	20.578281	3218.970148	-267.798010	13.991352	11.629148	-0.505215	33.407442	-32.601330	-45.000000	-45.000000	4410.417462	-3882.136651	26.185195	42.939699	-9.918410	38.962012	11.352237	-22.113577	
8.2200	-38.713974	-22.349704	24.059760	-115.251380	855.514642	-43.205510	45.000000	-45.000000	39.766678	-45.000000	-33.093316	2508.787042	-824.960247	-90.000000	20.558410	3219.009785	-267.262582	14.113547	11.665452	-0.556149	33.357905	-32.497008	-45.000000	-45.000000	4410.361285	-3882.174225	26.195210	42.931346	-9.805088	39.395809	11.276300	-22.182992	
8.2300	-38.686487	-22.437839	24.160699	-114.914215	855.157973	-43.164790	45.000000	-45.000000	39.794778	-45.000000	-33.062776	2508.757023	-824.927484	-90.000000	20.538560	3219.011171	-266.823150	14.207097	11.696073	-0.592238	33.337597	-32.442223	-45.000000	-45.000000	4410.327074	-3882.201441	26.210918	42.993724	-9.734487	39.744217	11.195674	-22.235578	
8.2400	-38.668205	-22.518025	24.244311	-114.516231	854.833142	-43.129162	45.000000	-45.000000	39.807897	-45.000000	-33.028978	2508.753533	-824.890822	-90.000000	20.515029	3218.992371	-266.484834	14.281327	11.720381	-0.631729	33.333056	-32.408187	-45.000000	-45.000000	4410.301288	-3882.224667	26.236816	43.113694	-9.678021	40.009008	11.122697	-22.279799	
8.2500	-38.650156	-22.601021	24.323775	-114.042361	854.549398	-43.100252	45.000000	-45.000000	39.827404	-45.000000	-32.980458	2508.761038	-824.853708	-90.000000	20.491328	3218.957325	-266.252818	14.342624	11.747752	-0.649703	33.324566	-32.384683	-45.000000	-45.000000	4410.272723	-3882.234496	26.266088	43.291844	-9.627215	40.195108	11.078230	-22.306935	
8.2600	-38.634280	-22.680387	24.391916	-113.480857	854.314228	-43.079484	45.000000	-45.000000	39.840148	-45.000000	-32.912646	2508.786844	-824.807427	-90.000000	20.458809	3218.910690	-266.115152	14.386751	11.766221	-0.690454	33.330032	-32.372370	-45.000000	-45.000000	4410.247947	-3882.240168	26.312963	43.531315	-9.578512	40.313531	11.042739	-22.335090	
8.2700	-38.610776	-22.765125	24.462667	-112.822591	854.132850	-43.067931	45.000000	-45.000000	39.868722	-45.000000	-32.808227	2508.809160	-824.755712	-90.000000	20.421472	3218.861556	-266.055125	14.427702	11.788881	-0.720300	33.320676	-32.364169	-45.000000	-45.000000	4410.212502	-3882.233303	26.364287	43.827796	-9.516158	40.391612	11.039003	-22.355715	
8.2800	-38.593079	-22.837731	24.513998	-112.060032	854.007408	-43.066183	45.000000	-45.000000	39.880519	-45.000000	-32.673942	2508.852841	-824.691594	-90.000000	20.372717	3218.807383	-266.053684	14.458652	11.803843	-0.764383	33.321230	-32.381948	-45.000000	-45.000000	4410.182976	-3882.225363	26.435023	44.188142	-9.449395	40.445565	11.039314	-22.383336	
8.2900	-38.573712	-22.910436	24.559201	-111.187328	853.937096	-43.074434	45.000000	-45.000000	39.896380	-45.000000	-32.503558	2508.902398	-824.622104	-90.000000	20.319881	3218.750041	-266.097038	14.490553	11.825799	-0.774548	33.306062	-32.420081	-45.000000	-45.000000	4410.149977	-3882.205715	26.512321	44.605180	-9.372586	40.498058	11.065472	-22.403954	
8.3000	-38.555761	-22.977961	24.591505	-110.199998	853.917994	-43.092493	45.000000	-45.000000	39.905380	-45.000000	-32.306067	2508.971429	-824.544372	-90.000000	20.260157	3218.688462	-266.171221	14.515600	11.842919	-0.783879	33.298226	-32.479227	-45.000000	-45.000000	4410.122218	-3882.180339	26.610670	45.076407	-9.292994	40.556689	11.095545	-22.431431	
8.3100	-38.531397	-23.053460	24.628301	-109.095235	853.943449	-43.119777	45.000000	-45.000000	39.925868	-45.000000	-32.082138	2509.044245	-824.464935	-90.000000	20.200011	3218.625393	-266.264938	14.538963	11.865264	-0.758982	33.282120	-32.558144	-45.000000	-45.000000	4410.094344	-3882.144105	26.715402	45.593347	-9.208032	40.635020	11.145985	-22.455083	
8.3200	-38.499535	-23.138528	24.671088	-107.871406	854.004416	-43.155255	45.000000	-45.000000	39.959229	-45.000000	-31.838802	2509.124902	-824.383810	-90.000000	20.139190	3218.562173	-266.367038	14.553698	11.885136	-0.724287	33.273430	-32.650648	-45.000000	-45.000000	4410.069556	-3882.100247	26.834765	46.147705	-9.122768	40.736963	11.204648	-22.482449	
8.3300	-38.454184	-23.246988	24.734678	-106.528122	854.089985	-43.197360	45.000000	-45.000000	40.016175	-45.000000	-31.577875	2509.202285	-824.303972	-90.000000	20.080348	3218.499953	-266.468601	14.561992	11.908330	-0.669062	33.263757	-32.750934	-45.000000	-45.000000	4410.044672	-3882.045170	26.957100	46.732814	-9.035888	40.869717	11.280239	-22.506225	
8.3400	-38.394844	-23.379269	24.819284	-105.065703	854.188013	-43.243962	45.000000	-45.000000	40.093593	-45.000000	-31.303599	2509.280974	-824.224977	-90.000000	20.022726	3218.439096	-266.561984	14.560872	11.928868	-0.621999	33.262337	-32.851219	-45.000000	-45.000000	4410.018307	-3881.979605	27.086114	47.345024	-8.949457	41.034108	11.362969	-22.530970	
8.3500	-38.323784	-23.536030	24.925289	-103.485433	854.285743	-43.292412	45.000000	-45.000000	40.182328	-45.000000	-31.017333	2509.360798	-824.146602	-90.000000	19.965933	3218.379845	-266.642968	14.556124	11.949463	-0.576941	33.262375	-32.957466	-45.000000	-45.000000	4409.991338	-3881.907364	27.213508	47.983750	-8.861164	41.232223	11.454137	-22.552165	
8.3600	-38.241658	-23.714528	25.051451	-101.789072	854.370380	-43.339732	45.000000	-45.000000	40.279174	-45.000000	-30.722609	2509.444014	-824.070866	-90.000000	19.911903	3218.322240	-266.708461	14.549134	11.969808	-0.532352	33.262862	-33.066428	-45.000000	-45.000000	4409.962733	-3881.830376	27.342087	48.640975	-8.772034	41.465028	11.551887	-22.566119	
8.3700	-38.149558	-23.916613	25.198991	-99.979333	854.429569	-43.382869	45.000000	-45.000000	40.378707	-45.000000	-30.422098	2509.531310	-823.997012	-90.000000	19.859802	3218.265231	-266.756445	14.542217	11.989761	-0.489713	33.262420	-33.176624	-45.000000	-45.000000	4409.934193	-3881.750047	27.469918	49.310345	-8.681924	41.730835	11.654325	-22.570975	
8.3800	-38.045639	-24.141175	25.370490	-98.059590	854.451772	-43.419025	45.000000	-45.000000	40.482337	-45.000000	-30.122117	2509.622792	-823.927588	-90.000000	19.812118	3218.209437	-266.784273	14.535018	12.008361	-0.451991	33.260728	-33.284654	-45.000000	-45.000000	4409.903582	-3881.667134	27.597899	49.982555	-8.593404	42.027433	11.760977	-22.563950	
